<?xml version="1.0" encoding="UTF-8" standalone="no"?>
<svg
   xmlns:dc="http://purl.org/dc/elements/1.1/"
   xmlns:cc="http://creativecommons.org/ns#"
   xmlns:rdf="http://www.w3.org/1999/02/22-rdf-syntax-ns#"
   xmlns:svg="http://www.w3.org/2000/svg"
   xmlns="http://www.w3.org/2000/svg"
   xmlns:sodipodi="http://sodipodi.sourceforge.net/DTD/sodipodi-0.dtd"
   xmlns:inkscape="http://www.inkscape.org/namespaces/inkscape"
   width="120mm"
   height="120mm"
   viewBox="0 0 120 120"
   version="1.1"
   id="svg8"
   inkscape:version="1.0.2 (e86c8708, 2021-01-15)"
   sodipodi:docname="book.svg">
  <defs
     id="defs2" />
  <sodipodi:namedview
     id="base"
     pagecolor="#ffffff"
     bordercolor="#666666"
     borderopacity="1.0"
     inkscape:pageopacity="0.0"
     inkscape:pageshadow="2"
     inkscape:zoom="1.0369487"
     inkscape:cx="290.81929"
     inkscape:cy="247.3247"
     inkscape:document-units="mm"
     inkscape:current-layer="layer1"
     inkscape:document-rotation="0"
     showgrid="false"
     fit-margin-top="0"
     fit-margin-left="0"
     fit-margin-right="0"
     fit-margin-bottom="0"
     inkscape:window-width="1252"
     inkscape:window-height="943"
     inkscape:window-x="0"
     inkscape:window-y="25"
     inkscape:window-maximized="0" />
  <metadata
     id="metadata5">
    <rdf:RDF>
      <cc:Work
         rdf:about="">
        <dc:format>image/svg+xml</dc:format>
        <dc:type
           rdf:resource="http://purl.org/dc/dcmitype/StillImage" />
        <dc:title></dc:title>
      </cc:Work>
    </rdf:RDF>
  </metadata>
  <g
     inkscape:label="Layer 1"
     inkscape:groupmode="layer"
     id="layer1"
     transform="translate(-61.363609,-101.6125)">
    <g
       id="g896"
       transform="translate(-0.40149566,-1.5633959)">
      <g
         id="g868">
        <g
           id="g23"
           transform="translate(0,-11.449091)">
          <path
             id="path16"
             style="fill:#0000ff;fill-rule:evenodd;stroke-width:0.264583"
             d="m 73.059525,119.44047 h 23.970237 c 1.108,0 2,0.892 2,2 v 106.36904 c 0,1.108 -0.892,2 -2,2 H 73.059525 c -1.108,0 -2,-0.892 -2,-2 V 121.44047 c 0,-1.108 0.892,-2 2,-2 z" />
          <path
             id="path26"
             style="fill:#083084;fill-opacity:1;fill-rule:evenodd;stroke-width:0.264583"
             d="m 73.059525,119.44047 h 23.970237 c 1.108,0 2,0.892 2,2 v 106.36904 c 0,1.108 -0.892,2 -2,2 H 73.059525 c -1.108,0 -2,-0.892 -2,-2 V 121.44047 c 0,-1.108 0.892,-2 2,-2 z" />
        </g>
        <rect
           style="fill:#840830;fill-opacity:1;stroke-width:0.28928"
           id="rect859"
           width="26.53619"
           height="10.971694"
           x="71.698738"
           y="178.07263"
           rx="2.390806"
           ry="2.0000012" />
        <rect
           style="fill:#840830;fill-opacity:1;stroke-width:0.28928"
           id="rect861"
           width="26.53619"
           height="10.971694"
           x="71.698738"
           y="137.30745"
           rx="2.390806"
           ry="2.0000012" />
      </g>
      <g
         id="g880"
         transform="rotate(-26.727738,110.44466,56.258826)">
        <g
           id="g874"
           transform="translate(0,-11.449091)">
          <path
             id="path870"
             style="fill:#0000ff;fill-rule:evenodd;stroke-width:0.264583"
             d="m 73.059525,119.44047 h 23.970237 c 1.108,0 2,0.892 2,2 v 106.36904 c 0,1.108 -0.892,2 -2,2 H 73.059525 c -1.108,0 -2,-0.892 -2,-2 V 121.44047 c 0,-1.108 0.892,-2 2,-2 z" />
          <path
             id="path872"
             style="fill:#083084;fill-opacity:1;fill-rule:evenodd;stroke-width:0.264583"
             d="m 73.059525,119.44047 h 23.970237 c 1.108,0 2,0.892 2,2 v 106.36904 c 0,1.108 -0.892,2 -2,2 H 73.059525 c -1.108,0 -2,-0.892 -2,-2 V 121.44047 c 0,-1.108 0.892,-2 2,-2 z" />
        </g>
        <rect
           style="fill:#840830;fill-opacity:1;stroke-width:0.28928"
           id="rect876"
           width="26.53619"
           height="10.971694"
           x="71.698738"
           y="178.07263"
           rx="2.390806"
           ry="2.0000012" />
        <rect
           style="fill:#840830;fill-opacity:1;stroke-width:0.28928"
           id="rect878"
           width="26.53619"
           height="10.971694"
           x="71.698738"
           y="137.30745"
           rx="2.390806"
           ry="2.0000012" />
      </g>
    </g>
  </g>
</svg>
